# Blender v2.92.0 OBJ File: ''
# www.blender.org
mtllib luneeyehighlight.mtl
o LuneGym3_mesh.012_LuneGym3.012
v -0.623771 1.503117 0.753557
v -0.594136 1.484755 0.764082
v -0.603886 1.468853 0.756983
v 0.603597 1.430044 0.752529
v 0.634819 1.421539 0.737378
v 0.622928 1.395592 0.740870
v 0.637493 1.449919 0.739371
v -0.622929 1.395596 0.740871
v -0.634820 1.421543 0.737379
v -0.603597 1.430048 0.752530
v -0.637494 1.449923 0.739372
v 0.602945 1.449450 0.755065
v -0.602946 1.449452 0.755066
v 0.593455 1.413540 0.755781
v 0.584727 1.396208 0.758381
v -0.593456 1.413544 0.755781
v -0.584728 1.396212 0.758382
v -0.534774 1.448780 0.783592
v 0.534773 1.448776 0.783591
v -0.568226 1.387571 0.764852
v 0.568225 1.387568 0.764851
v -0.585220 1.356169 0.755237
v -0.533618 1.378685 0.777019
v 0.533617 1.378681 0.777018
v -0.628407 1.349888 0.734521
v -0.607423 1.372166 0.746207
v -0.649831 1.379370 0.726358
v 0.441452 1.394323 0.801116
v 0.413065 1.377235 0.804597
v 0.400199 1.408804 0.811227
v 0.457259 1.372620 0.795132
v 0.430257 1.418192 0.806346
v 0.396515 1.443684 0.817077
v -0.428714 1.445517 0.810849
v -0.396516 1.443688 0.817078
v -0.430257 1.418194 0.806347
v 0.428713 1.445513 0.810849
v -0.402219 1.480427 0.822056
v 0.402219 1.480425 0.822056
v -0.663625 1.413740 0.722679
v -0.689322 1.406828 0.708559
v -0.695323 1.450745 0.710386
v 0.514685 1.378164 0.782879
v 0.498542 1.388092 0.787466
v 0.480247 1.357565 0.788887
v -0.498543 1.388096 0.787467
v 0.481517 1.396538 0.792143
v 0.472941 1.412716 0.795952
v -0.472942 1.412720 0.795953
v -0.441453 1.394327 0.801117
v -0.462919 1.428028 0.800081
v 0.462918 1.428024 0.800080
v -0.464270 1.447113 0.802573
v 0.464270 1.447109 0.802572
v -0.474517 1.482950 0.805770
v 0.474516 1.482946 0.805769
v -0.501002 1.509279 0.803372
v 0.501002 1.509276 0.803371
v -0.463925 1.466217 0.805564
v 0.463924 1.466213 0.805563
v -0.431769 1.473766 0.814522
v 0.431769 1.473763 0.814521
v 0.444073 1.500231 0.816382
v -0.635171 1.478016 0.744055
v -0.668702 1.450340 0.724185
v 0.668702 1.450337 0.724184
v 0.663624 1.413736 0.722678
v -0.663975 1.486528 0.731574
vt 0.176677 0.544098
vt 0.185326 0.566334
vt 0.161130 0.592178
vt 0.834130 0.437627
vt 0.843069 0.474945
vt 0.819230 0.489647
vt 0.844902 0.515830
vt 0.176906 0.489647
vt 0.153066 0.474945
vt 0.162005 0.437627
vt 0.151234 0.515830
vt 0.818731 0.516879
vt 0.177405 0.516879
vt 0.811498 0.466288
vt 0.804830 0.441728
vt 0.184637 0.466288
vt 0.191305 0.441728
vt 0.229116 0.516125
vt 0.767020 0.516125
vt 0.203729 0.426359
vt 0.792408 0.426359
vt 0.190665 0.384248
vt 0.229427 0.416140
vt 0.766709 0.416140
vt 0.173522 0.404164
vt 0.156703 0.372135
vt 0.140686 0.414253
vt 0.667875 0.456704
vt 0.677779 0.411864
vt 0.698819 0.436026
vt 0.711009 0.404905
vt 0.664968 0.506117
vt 0.690350 0.470898
vt 0.305786 0.470898
vt 0.331168 0.506117
vt 0.307464 0.509762
vt 0.688671 0.509762
vt 0.327296 0.559383
vt 0.668840 0.559383
vt 0.130466 0.463478
vt 0.109999 0.453208
vt 0.105705 0.516180
vt 0.741071 0.429233
vt 0.752902 0.415217
vt 0.728524 0.383309
vt 0.255065 0.429233
vt 0.728590 0.439313
vt 0.721848 0.462623
vt 0.274288 0.462623
vt 0.282030 0.484857
vt 0.297317 0.436026
vt 0.714106 0.484857
vt 0.281242 0.512528
vt 0.714894 0.512528
vt 0.273187 0.562983
vt 0.722949 0.562983
vt 0.253990 0.602177
vt 0.742145 0.602177
vt 0.281068 0.539389
vt 0.715068 0.539389
vt 0.305362 0.550396
vt 0.690773 0.550396
vt 0.699836 0.588580
vt 0.126811 0.516034
vt 0.153026 0.556401
vt 0.865670 0.463478
vt 0.869325 0.516034
vt 0.130124 0.568386
vn -0.4322 -0.1228 0.8933
vn -0.4047 -0.1401 0.9036
vn -0.4185 -0.1481 0.8960
vn 0.4221 -0.0741 0.9035
vn 0.4265 -0.0883 0.9001
vn 0.4280 -0.0934 0.8989
vn 0.4246 -0.1035 0.8994
vn -0.4279 -0.0934 0.8990
vn -0.4265 -0.0883 0.9001
vn -0.4261 -0.0762 0.9014
vn -0.4243 -0.1085 0.8990
vn 0.4050 -0.0953 0.9093
vn -0.4056 -0.1080 0.9077
vn 0.4050 -0.0746 0.9113
vn 0.3983 -0.0633 0.9150
vn -0.4050 -0.0746 0.9113
vn -0.4018 -0.0649 0.9134
vn -0.3111 -0.1117 0.9438
vn 0.3019 -0.1084 0.9471
vn -0.3824 -0.0731 0.9211
vn 0.3763 -0.0761 0.9234
vn -0.4133 -0.0695 0.9079
vn -0.3072 -0.0938 0.9470
vn 0.3062 -0.0814 0.9485
vn -0.4223 -0.0714 0.9037
vn -0.4292 -0.0682 0.9006
vn -0.4392 -0.0787 0.8949
vn 0.1983 -0.1322 0.9712
vn 0.1947 -0.1253 0.9728
vn 0.2077 -0.1172 0.9711
vn 0.2107 -0.1035 0.9720
vn 0.1976 -0.1528 0.9683
vn 0.2090 -0.1308 0.9691
vn -0.2172 -0.1325 0.9671
vn -0.1962 -0.1572 0.9679
vn -0.2144 -0.1496 0.9652
vn 0.2144 -0.1497 0.9652
vn -0.2038 -0.1556 0.9666
vn 0.2038 -0.1556 0.9666
vn -0.4480 -0.0918 0.8893
vn -0.4593 -0.0962 0.8830
vn -0.4588 -0.0997 0.8829
vn 0.2371 -0.0839 0.9678
vn 0.2739 0.0009 0.9618
vn 0.2147 -0.0881 0.9727
vn -0.2508 -0.0882 0.9640
vn 0.2149 -0.1061 0.9708
vn 0.2326 -0.1091 0.9664
vn -0.2377 -0.1082 0.9653
vn -0.2105 -0.1328 0.9685
vn -0.2210 -0.1109 0.9689
vn 0.2105 -0.1328 0.9685
vn -0.2400 -0.1420 0.9603
vn 0.2400 -0.1420 0.9603
vn -0.2529 -0.1625 0.9537
vn 0.2486 -0.1630 0.9548
vn -0.2545 -0.1693 0.9521
vn 0.2545 -0.1692 0.9521
vn -0.2213 -0.1476 0.9640
vn 0.2253 -0.1536 0.9621
vn -0.2217 -0.1493 0.9636
vn 0.2232 -0.1564 0.9621
vn 0.2313 -0.1697 0.9579
vn -0.4422 -0.1063 0.8905
vn -0.4217 -0.1327 0.8969
vn 0.4329 -0.0914 0.8968
vn 0.4337 -0.1000 0.8955
vn -0.4266 -0.1318 0.8947
usemtl 3500_N00_000_00_EyeHighlight_00_EYE_(Instance)
s 1
f 3/1/1 2/2/2 1/3/3
f 6/4/4 5/5/5 4/6/6
f 4/6/6 5/5/5 7/7/7
f 10/8/8 9/9/9 8/10/10
f 11/11/11 9/9/9 10/8/8
f 7/7/7 12/12/12 4/6/6
f 11/11/11 13/13/13 3/1/1
f 2/2/2 3/1/1 13/13/13
f 4/6/6 14/14/14 6/4/4
f 10/8/8 13/13/13 11/11/11
f 14/14/14 4/6/6 12/12/12
f 6/4/4 14/14/14 15/15/15
f 8/10/10 16/16/16 10/8/8
f 13/13/13 10/8/8 16/16/16
f 17/17/17 16/16/16 8/10/10
f 13/13/13 18/18/18 2/2/2
f 18/18/18 13/13/13 16/16/16
f 14/14/14 12/12/12 19/19/19
f 16/16/16 20/20/20 18/18/18
f 19/19/19 21/21/21 14/14/14
f 16/16/16 17/17/17 20/20/20
f 21/21/21 15/15/15 14/14/14
f 22/22/22 20/20/20 17/17/17
f 20/20/20 23/23/23 18/18/18
f 19/19/19 24/24/24 21/21/21
f 22/22/22 26/25/25 25/26/26
f 27/27/27 25/26/26 26/25/25
f 30/28/28 29/29/29 28/30/30
f 31/31/31 28/30/30 29/29/29
f 33/32/32 30/28/28 32/33/33
f 28/30/30 32/33/33 30/28/28
f 36/34/34 35/35/35 34/36/36
f 32/33/33 37/37/37 33/32/32
f 26/25/25 8/10/10 27/27/27
f 34/36/36 35/35/35 38/38/38
f 39/39/39 33/32/32 37/37/37
f 40/40/40 27/27/27 8/10/10
f 27/27/27 40/40/40 41/41/41
f 8/10/10 26/25/25 17/17/17
f 17/17/17 26/25/25 22/22/22
f 42/42/42 41/41/41 40/40/40
f 44/43/43 43/44/44 24/24/24
f 43/44/44 44/43/43 45/45/45
f 18/18/18 23/23/23 46/46/46
f 44/43/43 24/24/24 19/19/19
f 47/47/47 31/31/31 45/45/45
f 45/45/45 44/43/43 47/47/47
f 28/30/30 31/31/31 47/47/47
f 48/48/48 47/47/47 44/43/43
f 47/47/47 48/48/48 28/30/30
f 18/18/18 46/46/46 49/49/49
f 48/48/48 44/43/43 19/19/19
f 51/50/50 49/49/49 50/51/51
f 28/30/30 48/48/48 52/52/52
f 50/51/51 36/34/34 51/50/50
f 52/52/52 32/33/33 28/30/30
f 51/50/50 36/34/34 34/36/36
f 49/49/49 51/50/50 53/53/53
f 37/37/37 32/33/33 52/52/52
f 54/54/54 52/52/52 48/48/48
f 49/49/49 53/53/53 18/18/18
f 19/19/19 54/54/54 48/48/48
f 34/36/36 53/53/53 51/50/50
f 52/52/52 54/54/54 37/37/37
f 53/53/53 55/55/55 18/18/18
f 19/19/19 56/56/56 54/54/54
f 18/18/18 55/55/55 57/57/57
f 58/58/58 56/56/56 19/19/19
f 59/59/59 53/53/53 34/36/36
f 53/53/53 59/59/59 55/55/55
f 37/37/37 54/54/54 60/60/60
f 56/56/56 60/60/60 54/54/54
f 34/36/36 61/61/61 59/59/59
f 60/60/60 62/62/62 37/37/37
f 38/38/38 61/61/61 34/36/36
f 37/37/37 62/62/62 39/39/39
f 60/60/60 56/56/56 63/63/63
f 63/63/63 62/62/62 60/60/60
f 8/10/10 9/9/9 40/40/40
f 65/64/64 11/11/11 64/65/65
f 9/9/9 11/11/11 65/64/64
f 40/40/40 65/64/64 42/42/42
f 1/3/3 64/65/65 3/1/1
f 5/5/5 67/66/66 66/67/67
f 3/1/1 64/65/65 11/11/11
f 5/5/5 6/4/4 67/66/66
f 65/64/64 64/65/65 68/68/68
f 66/67/67 7/7/7 5/5/5
f 68/68/68 64/65/65 1/3/3
f 65/64/64 40/40/40 9/9/9
