# Blender v2.92.0 OBJ File: ''
# www.blender.org
mtllib luneeyebrows.mtl
o LuneGym3_mesh_LuneGym3
v 0.707695 1.704292 0.840320
v 0.642952 1.701664 0.869826
v 0.645617 1.804503 0.885683
v -0.645617 1.804503 0.885682
v -0.642953 1.701658 0.869826
v -0.707696 1.704289 0.840320
v 0.227432 1.751907 1.012443
v 0.319446 1.767294 0.989597
v 0.329990 1.667923 0.967528
v 0.713636 1.806612 0.854247
v -0.713636 1.806614 0.854247
v -0.319447 1.767296 0.989597
v -0.227432 1.751906 1.012443
v -0.329990 1.667923 0.967528
v 0.649076 1.920666 0.901549
v -0.649076 1.920664 0.901548
v 0.416294 1.680117 0.944275
v 0.773107 1.705677 0.804799
v -0.416294 1.680115 0.944275
v -0.773107 1.705673 0.804799
v 0.781527 1.807123 0.817168
v -0.781527 1.807121 0.817168
v 0.721658 1.923664 0.867446
v -0.721659 1.923658 0.867445
v 0.409216 1.781206 0.965906
v 0.842401 1.704420 0.761884
v -0.842402 1.704416 0.761884
v -0.409217 1.781206 0.965906
v 0.498454 1.689873 0.920445
v -0.498454 1.689871 0.920444
v 0.852928 1.804495 0.772954
v -0.852929 1.804493 0.772954
v 0.918795 1.699116 0.710198
v 0.494498 1.792149 0.940524
v -0.918796 1.699110 0.710199
v -0.494498 1.792147 0.940524
v 0.574623 1.697081 0.895730
v -0.574623 1.697079 0.895730
v 0.998739 1.691794 0.654127
v 0.931479 1.797171 0.720113
v -0.931480 1.797167 0.720114
v -0.998739 1.691790 0.654127
v 1.013604 1.787495 0.662960
v -1.013605 1.787493 0.662960
v 0.573796 1.799961 0.913700
v 0.488708 1.905119 0.960778
v -0.573796 1.799957 0.913700
v -0.488709 1.905113 0.960778
v 0.572276 1.914579 0.932126
v -0.572277 1.914578 0.932126
vt 0.763846 0.518470
vt 0.763846 0.281111
vt 0.803354 0.281111
vt 0.197500 0.281111
vt 0.237007 0.281111
vt 0.237008 0.518470
vt 0.595345 0.281111
vt 0.595345 0.518470
vt 0.548873 0.518470
vt 0.803354 0.518470
vt 0.197500 0.518470
vt 0.405509 0.281111
vt 0.451981 0.518470
vt 0.405509 0.518470
vt 0.763846 0.758827
vt 0.237007 0.758827
vt 0.640457 0.281111
vt 0.841960 0.281111
vt 0.360396 0.281111
vt 0.158894 0.281111
vt 0.841959 0.518470
vt 0.158894 0.518470
vt 0.803354 0.758827
vt 0.197500 0.758827
vt 0.640457 0.518470
vt 0.879333 0.281111
vt 0.121521 0.281111
vt 0.360396 0.518470
vt 0.682852 0.281111
vt 0.318002 0.281111
vt 0.879333 0.518470
vt 0.121521 0.518470
vt 0.915145 0.281111
vt 0.682852 0.518470
vt 0.085708 0.281111
vt 0.318002 0.518470
vt 0.723618 0.281111
vt 0.277236 0.281111
vt 0.915145 0.518470
vt 0.950177 0.281111
vt 0.050676 0.281111
vt 0.085708 0.518470
vt 0.950177 0.518470
vt 0.050676 0.518470
vt 0.723618 0.518470
vt 0.682852 0.758827
vt 0.277236 0.518470
vt 0.318002 0.758827
vt 0.723618 0.758827
vt 0.277236 0.758827
vn 0.3958 -0.1442 0.9069
vn 0.3887 -0.1522 0.9087
vn 0.4454 -0.1469 0.8832
vn -0.4454 -0.1469 0.8832
vn -0.3887 -0.1522 0.9087
vn -0.3958 -0.1442 0.9069
vn 0.2750 -0.1805 0.9443
vn 0.2719 -0.1816 0.9450
vn 0.2655 -0.1821 0.9467
vn 0.4502 -0.1399 0.8819
vn -0.4502 -0.1398 0.8819
vn -0.2750 -0.1805 0.9443
vn -0.2655 -0.1821 0.9467
vn -0.2719 -0.1816 0.9450
vn 0.4191 -0.1351 0.8978
vn -0.4191 -0.1351 0.8978
vn 0.2860 -0.1807 0.9410
vn 0.4968 -0.1457 0.8555
vn -0.2860 -0.1807 0.9410
vn -0.4968 -0.1457 0.8555
vn 0.4915 -0.1423 0.8591
vn -0.4915 -0.1423 0.8591
vn 0.4760 -0.1307 0.8697
vn -0.4759 -0.1307 0.8697
vn 0.2876 -0.1791 0.9408
vn 0.5327 -0.1476 0.8333
vn -0.5327 -0.1476 0.8333
vn -0.2876 -0.1791 0.9408
vn 0.3079 -0.1737 0.9354
vn -0.3079 -0.1737 0.9354
vn 0.5303 -0.1494 0.8345
vn -0.5303 -0.1494 0.8345
vn 0.5512 -0.1528 0.8202
vn 0.3191 -0.1622 0.9337
vn -0.5512 -0.1528 0.8202
vn -0.3191 -0.1623 0.9337
vn 0.3414 -0.1619 0.9258
vn -0.3414 -0.1620 0.9258
vn 0.5478 -0.1557 0.8219
vn 0.5543 -0.1579 0.8172
vn -0.5543 -0.1579 0.8172
vn -0.5478 -0.1557 0.8219
vn 0.5509 -0.1611 0.8188
vn -0.5509 -0.1611 0.8188
vn 0.3503 -0.1517 0.9243
vn 0.3300 -0.1502 0.9319
vn -0.3503 -0.1517 0.9243
vn -0.3300 -0.1502 0.9319
vn 0.3675 -0.1429 0.9190
vn -0.3675 -0.1428 0.9189
usemtl 4000_N00_000_00_FaceBrow_00_FACE_(Instance)
s 1
f 3/1/1 2/2/2 1/3/3
f 6/4/4 5/5/5 4/6/6
f 9/7/7 8/8/8 7/9/9
f 1/3/3 10/10/10 3/1/1
f 11/11/11 6/4/4 4/6/6
f 14/12/12 13/13/13 12/14/14
f 15/15/15 3/1/1 10/10/10
f 11/11/11 4/6/6 16/16/16
f 8/8/8 9/7/7 17/17/17
f 10/10/10 1/3/3 18/18/18
f 19/19/19 14/12/12 12/14/14
f 20/20/20 6/4/4 11/11/11
f 18/18/18 21/21/21 10/10/10
f 22/22/22 20/20/20 11/11/11
f 23/23/23 10/10/10 21/21/21
f 22/22/22 11/11/11 24/24/24
f 17/17/17 25/25/25 8/8/8
f 21/21/21 18/18/18 26/26/26
f 27/27/27 20/20/20 22/22/22
f 19/19/19 12/14/14 28/28/28
f 25/25/25 17/17/17 29/29/29
f 30/30/30 19/19/19 28/28/28
f 26/26/26 31/31/31 21/21/21
f 32/32/32 27/27/27 22/22/22
f 31/31/31 26/26/26 33/33/33
f 29/29/29 34/34/34 25/25/25
f 35/35/35 27/27/27 32/32/32
f 30/30/30 28/28/28 36/36/36
f 34/34/34 29/29/29 37/37/37
f 38/38/38 30/30/30 36/36/36
f 40/39/39 33/33/33 39/40/40
f 33/33/33 40/39/39 31/31/31
f 42/41/41 35/35/35 41/42/42
f 39/40/40 43/43/43 40/39/39
f 41/42/42 35/35/35 32/32/32
f 44/44/44 42/41/41 41/42/42
f 37/37/37 45/45/45 34/34/34
f 46/46/46 34/34/34 45/45/45
f 38/38/38 36/36/36 47/47/47
f 45/45/45 37/37/37 2/2/2
f 47/47/47 36/36/36 48/48/48
f 5/5/5 38/38/38 47/47/47
f 2/2/2 3/1/1 45/45/45
f 49/49/49 45/45/45 3/1/1
f 4/6/6 5/5/5 47/47/47
f 4/6/6 47/47/47 50/50/50
